<svg width="72" height="40" viewBox="0 0 72 40" fill="none" xmlns="http://www.w3.org/2000/svg">
<path fill-rule="evenodd" clip-rule="evenodd" d="M14.254 17.9132C14.254 14.3598 14.254 13.7225 14.2996 12.9941C14.3451 12.1969 14.4817 11.7409 15.0967 11.6734C15.3016 11.6497 15.4838 11.6272 15.6432 11.6272C15.7799 11.6272 15.8937 11.5822 15.8937 11.491C15.8937 11.3536 15.7799 11.3086 15.5294 11.3086C14.8462 11.3086 13.4115 11.3761 13.2976 11.3761C13.1838 11.3761 11.7263 11.3086 10.7015 11.3086C10.451 11.3086 10.3599 11.3761 10.3599 11.4685C10.3599 11.5585 10.451 11.6272 10.6104 11.6272C10.8153 11.6272 11.1342 11.6497 11.3163 11.6959C12.0679 11.8547 12.25 12.2195 12.2955 12.9941C12.3411 13.7225 12.3411 14.3598 12.3411 17.9132V24.4941C12.3411 30.3691 11.6352 31.5761 10.1548 33.0792C9.94992 33.2841 9.63107 33.5577 9.35781 33.7176C9.15289 33.8538 9.03906 33.9225 9.03906 34.0587C9.03906 34.1499 9.13015 34.1949 9.19849 34.1949C9.26672 34.1949 9.31232 34.1724 9.35781 34.1499C9.58558 34.0362 9.94992 33.7851 10.246 33.5802C12.0906 32.3057 13.0927 31.2349 13.5708 30.0965C14.254 28.4787 14.254 27.0679 14.254 23.3783V17.9132Z" fill="#0A1D2E"/>
<path fill-rule="evenodd" clip-rule="evenodd" d="M54.0207 27.4316C54.4532 28.525 54.5671 28.8435 54.8403 28.8435C55.0681 28.8435 55.1591 28.4788 55.7968 27.113C56.3206 25.9973 57.3454 23.5371 58.7345 20.2123C59.896 17.4121 61.0345 14.6784 61.2851 14.0412C61.8999 12.4931 62.2416 12.1057 62.5377 11.9008C62.9703 11.6272 63.4713 11.6272 63.6307 11.6272C63.8129 11.6272 63.904 11.5822 63.904 11.4685C63.904 11.3536 63.7673 11.3086 63.5169 11.3086C62.8566 11.3086 61.8771 11.3761 61.7405 11.3761C61.4673 11.3761 60.4199 11.3086 59.5088 11.3086C59.1445 11.3086 59.0079 11.3536 59.0079 11.491C59.0079 11.6047 59.1217 11.6272 59.2583 11.6272C59.5088 11.6272 59.8504 11.6272 60.1237 11.7184C60.3514 11.8321 60.4199 12.0597 60.4199 12.242C60.4199 12.4469 60.3286 12.7655 60.2149 13.1078C59.7137 14.7471 56.6623 22.695 55.3412 25.7461L50.6956 13.6539C50.4451 13.0166 50.2402 12.4019 50.2402 12.1969C50.2402 12.0372 50.2857 11.8547 50.5362 11.7409C50.7412 11.6499 51.1511 11.6272 51.4016 11.6272C51.561 11.6272 51.6294 11.5822 51.6294 11.4685C51.6294 11.3536 51.4243 11.3086 51.0145 11.3086C50.1491 11.3086 49.1699 11.3761 48.9421 11.3761C48.6688 11.3761 47.4392 11.3086 46.3461 11.3086C45.9817 11.3086 45.7539 11.3311 45.7539 11.4685C45.7539 11.5587 45.7994 11.6272 45.936 11.6272C46.0727 11.6272 46.4599 11.6272 46.8013 11.7184C47.5985 11.9459 47.9401 12.1969 48.4411 13.4715L54.0207 27.4316Z" fill="#0A1D2E"/>
<path fill-rule="evenodd" clip-rule="evenodd" d="M21.3328 21.9203C21.3328 24.1069 21.3328 25.906 21.219 26.863C21.1279 27.5229 21.0141 28.0239 20.5585 28.1151C20.3536 28.1602 20.0804 28.2063 19.8754 28.2063C19.7388 28.2063 19.6932 28.2749 19.6932 28.3426C19.6932 28.4788 19.807 28.525 20.0576 28.525C20.7407 28.525 22.1756 28.4563 22.2438 28.4563C22.3577 28.4563 23.7924 28.525 25.0448 28.525C25.2953 28.525 25.4092 28.4563 25.4092 28.3426C25.4092 28.2749 25.3637 28.2063 25.2271 28.2063C25.0221 28.2063 24.5211 28.1602 24.2023 28.1151C23.5191 28.0239 23.3824 27.5229 23.3141 26.863C23.2003 25.906 23.2003 24.1069 23.2003 21.9203V12.5607C23.2003 12.3333 23.2457 12.1734 23.3824 12.1284C23.5875 12.0372 23.9745 11.9921 24.3617 11.9921C24.8854 11.9921 26.2747 11.9008 27.4815 13.1304C28.6886 14.3599 28.757 15.8854 28.757 16.4551C28.757 18.8467 27.0262 20.3498 24.8171 20.3498C24.3389 20.3498 24.2023 20.3722 24.2023 20.5546C24.2023 20.6684 24.3389 20.7133 24.4528 20.7133C24.5667 20.737 24.8171 20.737 24.931 20.737C28.1648 20.737 30.5332 18.5506 30.5332 15.5894C30.5332 14.1099 29.8956 13.0854 29.3946 12.6069C29.0301 12.2646 28.0054 11.3086 25.1588 11.3086C24.1112 11.3086 22.7903 11.3763 22.2893 11.3763C22.1071 11.3763 20.7407 11.3086 19.716 11.3086C19.4655 11.3086 19.3516 11.3536 19.3516 11.4911C19.3516 11.5823 19.4426 11.6273 19.5338 11.6273C19.7388 11.6273 20.1259 11.6499 20.3081 11.696C21.0596 11.8548 21.2419 12.2195 21.2873 12.9942C21.3328 13.7227 21.3328 14.3599 21.3328 17.9133V21.9203Z" fill="#0A1D2E"/>
<path fill-rule="evenodd" clip-rule="evenodd" d="M64.999 4.07293C65.0014 4.07293 65.0016 4.07463 64.9988 4.07463C54.1128 4.1674 47.5579 7.32422 41.8549 13.5109C40.3946 15.0951 39.0878 16.7797 37.8223 18.5152C37.8223 17.4366 37.8224 16.2577 37.8224 15.2333C38.9664 13.856 40.1755 12.5417 41.4953 11.332C46.5482 6.70013 53.389 3.4672 64.999 4.07293Z" fill="#ED1C24"/>
<path fill-rule="evenodd" clip-rule="evenodd" d="M7.00428 36.4413C6.99854 36.4413 6.99876 36.4438 7.00383 36.4441C23.2179 36.8698 29.4807 29.9585 34.986 22.4118C34.9862 22.2361 34.9862 22.0593 34.9862 21.878V18.8438C28.6874 27.3433 23.1936 36.4413 7.00428 36.4413Z" fill="#ED1C24"/>
<path fill-rule="evenodd" clip-rule="evenodd" d="M39.3893 28.2063C39.1843 28.2063 38.6833 28.1602 38.3644 28.115C37.6813 28.024 37.5445 27.5229 37.4763 26.863C37.3625 25.906 37.3625 24.1069 37.3625 21.9203V12.5607C37.3625 12.3333 37.4079 12.1734 37.5445 12.1284C37.7497 12.0372 38.1367 11.9921 38.5239 11.9921C38.8122 11.9921 39.3625 11.9651 40.0003 12.144C40.2527 11.8897 40.506 11.6441 40.7599 11.4022C40.3412 11.3435 39.8645 11.3086 39.321 11.3086C38.2733 11.3086 36.9524 11.3763 36.4514 11.3763C36.2693 11.3763 34.9029 11.3086 33.8781 11.3086C33.6277 11.3086 33.5137 11.3536 33.5137 11.4911C33.5137 11.5823 33.605 11.6273 33.6961 11.6273C33.9009 11.6273 34.288 11.6499 34.4704 11.696C35.2218 11.8548 35.404 12.2195 35.4494 12.9942C35.495 13.7227 35.495 14.3599 35.495 17.9133V21.9203C35.495 24.1069 35.495 25.906 35.3811 26.863C35.2901 27.5229 35.1763 28.024 34.7209 28.115C34.5157 28.1602 34.2426 28.2063 34.0374 28.2063C33.9009 28.2063 33.8554 28.2749 33.8554 28.3426C33.8554 28.4788 33.9692 28.525 34.2196 28.525C34.9029 28.525 36.3377 28.4563 36.4059 28.4563C36.5199 28.4563 37.9546 28.525 39.2071 28.525C39.4575 28.525 39.5714 28.4563 39.5714 28.3426C39.5714 28.2749 39.5259 28.2063 39.3893 28.2063Z" fill="#0A1D2E"/>
<path fill-rule="evenodd" clip-rule="evenodd" d="M43.4775 12.498C43.0429 12.9281 42.6248 13.3672 42.2202 13.8142C42.8935 14.8715 42.9393 15.9737 42.9393 16.4387C42.9393 18.8302 41.2085 20.3332 38.9996 20.3332C38.5212 20.3332 38.3848 20.3558 38.3848 20.5382C38.3848 20.6519 38.5212 20.6969 38.6352 20.6969C38.7491 20.7206 38.9996 20.7206 39.1133 20.7206C42.3472 20.7206 44.7155 18.534 44.7155 15.5729C44.7155 14.0935 44.0779 13.0689 43.577 12.5904C43.5482 12.5634 43.5149 12.5318 43.4775 12.498Z" fill="#0A1D2E"/>
</svg>
