<svg width="617" height="957" viewBox="0 0 617 957" fill="none" xmlns="http://www.w3.org/2000/svg">
<path d="M413.926 923.988L411.301 922.761L413.926 915.496L417.31 916.236L413.926 923.988ZM407.416 906.265L410.677 905.652L410.047 909.591H407.416V906.265ZM404.412 948.855L406.419 942.944L409.05 943.683L403.659 955.38L401.034 956L404.412 948.855ZM485.334 667.315L489.348 665.962L494.604 660.916L497.235 657.097V663.502L495.859 667.321L500.49 670.028L499.744 673.846L505 672.62L504.37 676.439L502.369 677.052C501.951 677.956 500.864 678.816 499.107 679.638L495.73 680.865L493.099 684.064H487.836L484.581 686.037L483.198 689.856L482.954 692.442C483.037 694.332 483.745 695.85 485.083 697C487.251 698.72 488.795 700.857 489.715 703.399L488.338 705.985C487.502 703.443 486.415 701.717 485.083 700.813L481.075 698.594L478.566 697.487L475.935 695.641C473.761 693.017 472.011 692.113 470.673 692.935L466.285 695.401L463.41 696.754V701.306L462.155 699.34L460.779 700.2L458.771 702.539C458.36 703.854 459.022 704.917 460.779 705.739L475.813 711.031V716.196H471.175L469.927 713.61L467.919 718.782L469.798 721.982C467.212 721.982 465.455 721.324 464.536 720.009L461.409 714.224L460.779 712.251L458.771 710.898L456.14 707.079L449.624 701.167L443.737 699.194L442.489 695.995L443.737 696.981C444.657 697.639 445.532 697.968 446.369 697.968C449.875 697.968 451.631 697.31 451.631 695.995C451.631 695.255 451.335 694.067 450.749 692.423L449.746 690.21L451.129 687.624L450.499 683.805L455.639 685.038L458.894 684.665C459.061 684.336 459.1 683.843 459.022 683.192L459.273 681.219H459.022L455.767 669.648L459.145 668.295L457.897 661.896L454.635 659.31L450.627 654.138L452.757 647L456.018 648.353L458.521 651.432L462.529 655.498L465.411 658.204C467.829 660.177 470.126 661.448 472.3 662.023L480.818 663.376L485.334 667.315ZM504.878 816.52L504.131 818.492H502.124L502.871 814.553L504.878 816.52ZM475.06 719.389L475.44 718.156L478.322 721.109L480.58 727.514L482.587 729.854L484.215 732.566L486.846 736.012C487.682 736.67 489.31 737.201 491.735 737.612V742.164L493.986 743.15V745.37L495.62 747.342L496.495 750.542L493.62 752.514L494.868 756.087L493.491 759.906L492.237 759.286L489.856 760.886L490.236 766.051L491.239 768.271L494.115 773.196C495.788 775.574 496.701 780.828 496.875 788.953L497.004 792.032C497.254 794.409 497.634 796.42 498.129 798.064C498.966 800.605 500.259 801.554 502.015 800.896L501.886 802.249C501.796 803.236 501.841 803.969 502.015 804.462L501.385 805.569C500.381 806.062 499.712 806.435 499.377 806.675C498.876 807.168 498.831 807.662 499.249 808.155L500.375 810.248C500.542 811.809 499.879 812.789 498.367 813.2L495.743 815.786L493.363 816.4C493.363 815.084 492.944 813.896 492.108 812.834C491.613 812.176 490.815 811.809 489.728 811.727L488.229 811.854L487.849 814.44L489.477 815.053L488.731 822.065C488.48 823.38 487.598 823.171 486.1 821.452L484.472 820.958C483.301 820.794 482.426 821.161 481.841 822.065C480.509 824.202 478.624 824.815 476.205 823.911L474.327 824.038L473.947 824.651L472.699 824.524L471.316 820.705C470.982 819.801 470.396 819.643 469.566 820.212L468.441 821.319L466.433 819.719L465.803 815.167C465.803 814.509 465.256 814.18 464.175 814.18C463.757 814.18 463.673 815.533 463.924 818.24L464.42 822.305L467.051 825.138L470.313 827.11L470.937 829.696C470.937 830.765 469.727 831.827 467.308 832.896L463.68 833.882L464.06 839.294C463.558 841.925 462.972 843.442 462.31 843.847C461.892 844.093 460.843 843.727 459.177 842.74L456.796 841.261L455.548 837.322C454.21 836.5 453.078 836.051 452.165 835.969L450.415 834.122L449.662 832.15L450.293 829.564L448.035 827.591L448.665 825.005C447.829 823.69 446.742 822.703 445.41 822.046C444.484 821.553 443.19 821.844 441.524 822.912C439.942 823.974 439.06 825.087 438.9 826.232L433.888 829.804L431.508 833.003C430.922 833.99 429.63 834.483 427.622 834.483L426.374 833.25L425.622 834.483L423.614 835.469L422.733 834.856L420.983 838.055V840.274L420.353 841.874L414.467 840.274L411.835 840.401L410.459 841.141L408.201 839.541L405.325 835.975L406.953 832.156L410.208 831.543V830.556L412.215 828.957L412.595 826.984L414.222 822.185L415.226 820.585L414.344 818.366L416.602 814.18L417.606 813.561L422.244 811.221L426.496 812.574L428.504 811.348C429.752 810.69 432.595 810.279 437.021 810.115L439.273 808.142L441.28 807.895H443.287C443.956 807.649 444.284 808.389 444.284 810.115L445.783 812.701L450.794 809.622C451.882 809.375 451.882 808.717 450.794 807.649L448.163 804.329L447.533 802.483L448.916 797.925C449.328 797.267 449.328 795.87 448.916 793.739C449.167 794.15 450.498 792.221 452.924 787.953C453.336 786.638 453.052 785.121 452.042 783.401L450.035 780.202L451.418 776.636L452.666 775.036L454.674 778.356L454.294 783.528L457.807 787.96C458.476 788.453 459.479 787.384 460.811 784.76L461.564 782.548L464.819 778.975L467.579 774.176L469.206 768.391L470.21 754.601L469.328 753.001C468.827 751.768 468.698 750.908 468.949 750.415C470.036 748.525 470.37 746.558 469.952 744.503L469.071 741.917L468.447 740.684L467.443 738.098C465.945 737.194 465.063 736.417 464.812 735.759V731.573L468.447 729.36C468.691 728.292 468.486 727.23 467.817 726.161C467.482 725.504 467.688 725.055 468.447 724.808L469.824 724.561L472.082 724.928L474.713 726.901L474.462 725.301L476.72 723.948L475.06 719.389ZM389.879 833.629L390.13 838.801L387.872 838.061L388.251 833.262L388.876 833.136C389.377 833.06 389.712 833.218 389.879 833.629ZM398.898 848.892L401.903 846.306L403.91 845.933L403.53 842.734C403.697 842.323 404.161 842.114 404.913 842.114H405.911L407.789 841.501L409.423 842.114L412.678 844.7C413.598 845.193 414.602 844.903 415.689 843.834L417.316 843.221L422.206 849.379L425.834 851.965L424.83 853.811L425.081 857.751C426.001 858.819 426.336 859.679 426.085 860.337L424.702 865.749L425.705 867.722L423.955 870.674L426.96 872.647L424.328 875.846V879.046L422.321 884.211L420.823 884.458L419.697 883.225C419.697 882.65 419.446 881.91 418.944 881.012L418.063 879.906L417.69 883.105C415.515 882.694 413.971 881.954 413.051 880.886L412.299 878.913L412.8 877.313C413.212 875.84 412.884 874.316 411.797 872.761L409.294 869.682L407.66 867.962L409.539 867.348L410.169 868.455L411.552 869.561C412.221 869.561 412.678 868.499 412.929 866.362L412.299 864.762L413.302 861.81L410.292 858.61L409.043 858.737L407.66 860.216C407.248 860.463 407.371 860.912 408.04 861.569L410.298 863.416C410.8 863.991 410.928 864.32 410.677 864.402H409.301L407.918 863.782L407.294 863.043L406.29 865.995C406.123 866.653 405.37 866.324 404.032 865.009L404.412 861.81L404.032 859.224L401.15 859.47L400.526 858.851L401.774 857.251L397.888 855.651V854.298L398.519 852.326C399.188 851.915 399.439 851.055 399.265 849.74L398.898 848.892ZM393.006 842.74C393.173 844.055 393.051 844.915 392.626 845.326L391.378 843.354L392.008 842.367C392.51 841.798 392.845 841.918 393.006 842.74ZM386.617 857.517C387.203 856.859 387.75 856.53 388.251 856.53C389.171 856.612 389.294 857.188 388.625 858.256L387.628 859.489L386 858.503L386.617 857.517ZM394.884 857.144L395.888 857.017L396.267 858.124L396.518 860.83C396.428 861.816 396.061 861.816 395.386 860.83L394.138 858.244C394.054 857.681 394.305 857.308 394.884 857.144ZM444.374 825.998C444.876 825.176 445.21 824.967 445.378 825.378C445.622 825.953 445.5 827.224 444.998 829.197L443.744 827.224L444.374 825.998ZM442.367 830.183L445.378 830.803C446.458 830.803 447.629 831.789 448.884 833.756C449.63 834.742 449.296 837.075 447.88 840.768C447.469 841.918 447.34 843.025 447.501 844.093C447.501 846.389 447.378 847.868 447.128 848.526C446.96 849.101 445.873 848.153 443.866 845.693C443.454 845.118 442.869 844.915 442.116 845.08L440.99 845.573L437.98 848.772C437.394 849.348 436.847 849.594 436.352 849.512L435.722 849.139L435.593 850.372L437.22 856.524L435.972 858.497L431.334 857.757C430.923 857.757 430.877 857.226 431.205 856.157L431.707 854.558L430.08 854.184C429.662 852.465 429.121 850.985 428.452 849.752C428.034 848.937 427.365 848.646 426.445 848.892L425.197 849.385L424.567 848.032L425.197 846.926L426.445 845.453C427.114 845.288 427.783 843.935 428.452 841.387L429.198 839.048L428.819 836.462L434.081 836.588L435.329 833.016L441.968 830.31L442.367 830.183Z" fill="#8E8E8E" stroke="#C4C4C4"/>
<path d="M347.725 344.435L344.848 341.576L343.41 340.147L341.972 341.576L340.534 343.005L339.096 341.576H337.658L334.782 344.434L331.906 348.722L330.468 347.293L329.03 345.863L327.592 347.293H324.715L317.525 344.434H311.773L310.335 353.009V361.585L308.897 363.014L306.02 364.443V367.301L304.582 368.731V370.16L303.145 371.589V373.018L301.706 378.735L304.583 383.023L306.021 390.169L307.459 395.886L310.335 398.744L311.773 403.032L310.335 404.461L307.459 401.602L306.021 403.032V404.461L304.583 410.178L297.393 414.465L294.516 415.895H293.076L290.2 414.465L288.762 417.324V420.182L287.324 421.611L280.133 424.47L272.943 427.329H270.067L267.19 430.187L265.752 433.046L264.314 441.621L262.876 445.909L264.314 451.625H260L262.876 455.913L267.191 458.772L265.753 460.201L264.315 461.63V465.918L261.438 467.347L260 470.205H262.876L264.315 471.634L267.191 473.064L268.629 475.922V478.781L267.191 480.21L264.314 481.639V487.356L262.876 494.502L268.629 495.932L272.943 493.073L274.381 494.502H275.819L278.695 493.073L280.133 491.644L283.01 493.073L284.448 494.502H287.324L285.886 498.79L283.01 501.648V504.507L280.133 507.366L277.257 510.224L275.819 511.653L274.381 513.083V521.658L270.067 524.516V530.233L274.381 531.662H280.133L283.01 534.521L285.886 538.809H291.64L293.078 537.379L295.954 535.95L301.707 533.092L304.583 530.233L306.021 527.375H308.897L313.212 525.946L314.65 524.516H316.088L317.369 524.941L320.401 525.946L321.84 530.233V535.95L323.278 538.808V541.667L321.84 543.096H316.088L308.897 544.525L310.335 547.384V553.101L307.459 554.53L304.583 555.959L303.145 557.388L301.707 560.247V563.105L297.392 565.964L293.076 568.821L294.514 571.68V573.109L293.076 575.968L291.638 580.255V588.831L293.076 587.401L294.514 588.831V590.26H295.952L297.39 588.831L298.829 590.26V591.688H300.266L303.143 593.117V603.122L304.581 607.41V611.697L310.334 608.839H311.772L313.21 607.41L314.648 604.551H317.524L320.4 605.98L323.276 604.551H326.153L327.591 605.98L331.905 610.269H333.343L336.219 611.698H340.534L343.41 608.84H344.848H349.162L352.038 607.411L353.476 610.269L354.915 613.128L350.6 615.986L349.162 618.845L350.6 621.703L352.038 623.132L354.915 625.991L352.038 630.279L350.6 631.708V638.854L352.038 646L354.915 643.141V640.283L356.353 635.995L359.229 631.708H360.667L362.105 633.137L363.543 631.708L364.981 633.137V635.995L366.419 634.566L367.857 633.137L369.295 634.566L370.733 635.995L377.923 633.137L383.676 628.849V623.132L389.428 620.274L392.304 611.698H386.552L385.114 610.269V608.839L383.676 607.41L382.238 605.981V604.551H385.114L387.99 600.264L393.743 597.405L395.161 598.583L398.057 601.694L399.495 604.552L398.057 607.41V610.269L400.933 611.698H405.247L408.124 598.835L411 588.83V587.401L409.562 584.543V578.826L408.124 577.397V573.109L406.686 568.821L405.248 565.963L403.81 563.104V558.817L396.619 538.809V535.95L398.058 528.804L396.619 523.085L398.058 520.227L396.619 518.798L395.181 520.227L392.305 515.939V511.651H390.867L389.429 510.222L383.677 507.364H387.991L389.429 504.505L387.991 501.647H385.115L382.239 500.218L380.801 498.788H376.486L372.172 495.93V494.501L369.296 493.072H367.858L366.42 491.642H363.544L362.106 493.072L360.668 494.501L356.353 495.93H354.915L356.353 498.788V510.222L354.915 507.364V501.648L352.039 507.365L344.849 514.511V510.223L347.725 504.507H346.287L344.849 505.936H343.411L340.535 504.507L341.973 503.077L343.411 501.648V500.219L339.096 504.507L340.534 505.936V510.224H337.658V511.653L334.782 504.507L330.467 497.361L320.401 501.648L313.211 498.79L316.087 494.502L317.525 491.644L320.401 487.356L321.839 483.068L323.277 480.21L324.715 478.781L329.029 471.635L330.467 463.059L331.906 461.63L333.343 460.201V458.772L331.906 457.343L333.343 454.484V450.197L334.781 448.767L337.658 441.621L340.534 435.905L341.972 433.046V430.187L343.41 428.758L344.848 425.9V418.754L346.286 413.037L349.162 410.178L350.601 398.745L357.791 388.74H359.229L360.667 387.311L362.105 385.882L363.543 384.453L370.733 381.594L377.924 377.306H379.362L380.8 375.877H382.238V378.736L385.114 380.165L386.552 377.306L385.114 373.019H390.866V368.731L386.552 364.443L380.8 361.585H375.047L370.733 360.156V354.439L375.047 353.01L373.609 350.151V347.293H375.048L370.733 338.717L362.105 333L356.353 334.429L349.162 335.858V340.146L347.724 344.434L347.725 344.435Z" fill="#8E8E8E" stroke="#C4C4C4"/>
<path d="M424.333 92.0988H422.898L421.462 96.3757L427.205 99.2271L430.077 97.8015L432.949 94.9501L431.513 93.5246L430.077 90.6732H427.206L424.333 92.0988ZM464.538 1.57103L460.231 4.42239V6.41835L458.795 7.27374L457.359 8.41433L455.923 14.5446L457.359 20.8173L458.795 24.0962L461.667 25.807L463.103 26.5198L465.974 18.6779L470.282 16.3969L471.718 14.9714V13.2606L474.59 7.13029L473.154 1L470.282 1.42758L464.538 1.57103ZM562.179 31.2243L560.743 33.5053L559.307 35.0734L557.871 36.499L559.307 36.7842L560.743 35.7854L563.615 36.4981L566.487 37.6387V40.7757H569.359L572.231 42.2013H569.359V45.0526H567.923L566.488 43.6271L565.052 45.0526H560.744V42.2019L557.871 40.7757L552.128 36.6418L550.693 36.3566H549.257V39.3503L547.821 38.9228V38.353L546.385 36.4996L543.513 35.0741L540.641 35.9294L539.205 37.355L543.513 38.0678L542.077 39.3508L539.205 42.2021L537.77 39.3508L536.334 37.7826L534.898 39.0656L532.026 40.7763L530.59 39.3508L529.154 39.0656L524.847 40.7763L520.539 43.6277L519.103 42.2021H517.667L514.795 43.6277L511.923 45.0533L510.487 43.6277L507.615 42.2021L503.308 43.6277L499 46.479H491.821L490.385 47.9046L487.513 49.3302V47.9046H488.949V46.479H487.513L484.641 47.9046L483.205 49.3302L480.333 50.7558H477.462L476.026 52.1813L471.718 53.6069L467.41 55.0325H465.974V57.8834L464.539 56.4578H463.103L457.359 63.5859L455.923 65.0115L453.051 67.8628H450.18L451.615 69.2884V70.714H448.744L445.872 72.1395L444.436 73.5651L441.564 74.9907L437.256 77.842L432.949 79.2676L434.385 80.6931L435.82 82.1187L437.256 84.9701V89.247H440.128L441.564 87.8214L448.744 92.0988L450.179 99.2271L448.744 102.078V104.93H444.436L441.564 102.078L437.256 103.504L432.949 104.93L430.077 102.078L422.897 99.2268L421.462 100.652V107.78L418.59 110.632H415.718L412.846 112.057L411.41 113.483L408.538 116.334L404.231 117.76L401.359 116.334V117.76L399.923 119.185L398.487 120.611H397.051L395.615 123.462V124.888L394.18 126.314L392.744 127.739L394.18 130.59L395.615 132.016H397.051L398.487 133.442L399.923 136.293H401.359L404.231 137.719V140.57L407.102 144.847L408.538 147.698L405.666 149.124L404.231 150.549L394.179 161.954L387 171.934L388.436 173.359L389.872 174.785L388.436 177.636V180.488L397.051 186.19L405.667 189.041V190.467L404.231 191.893L407.103 197.595L409.975 201.872H414.282L417.154 203.298L418.59 209H422.897L425.769 207.574H430.077L434.385 209H440.128L444.436 206.149L448.744 207.574H455.923L458.795 204.723L463.103 201.872L461.667 199.02L464.539 196.169L465.974 194.743L468.846 193.318H473.154V191.892L478.898 189.041H480.333L483.205 187.615L486.077 184.764L487.513 183.338L490.385 181.913H493.257L494.692 183.338L499 181.913L503.308 180.487H506.18L507.616 181.913H514.795L516.231 189.041L517.667 197.595L523.41 196.169H529.154L534.897 197.595L539.205 199.02H540.641L542.076 197.595H543.512L544.948 196.169V191.892L546.384 190.467L549.256 189.041L563.615 171.933L565.051 173.359L567.922 176.21L570.794 174.784H573.666V176.21L575.102 177.636L576.538 173.359V167.656L579.41 159.102L582.281 150.548H579.41V149.123L577.974 147.697H579.41V146.272L582.281 149.123L589.461 144.846L596.64 140.569L595.204 139.144V133.441L590.897 132.016L586.589 130.59V127.739L582.281 129.164L577.973 127.739L570.794 123.462L562.179 119.185L560.743 123.462L554.999 124.887L552.128 122.036L550.692 120.61L549.256 124.887V126.313H546.384V129.164L544.948 127.739L546.185 126.313H540.641L541.117 127.791L542.077 130.59L539.205 132.016L537.769 133.441L539.205 130.59L540.641 129.164V127.739L539.205 124.887H540.641L549.257 120.61L547.821 119.185V117.759H553.564L559.308 113.482L562.18 104.928L560.744 96.3746L557.872 87.8208H553.564L547.821 86.3952L546.385 82.1183L547.821 79.2669H546.385L544.949 77.8414L547.821 76.4158L549.257 77.8414V72.1402L552.128 76.4171L553.564 80.694H556.436L557.872 79.2684H559.308L562.18 84.9709L563.615 83.5454L565.051 82.1198L567.923 74.9917L570.795 70.7148L573.667 69.2892L577.975 67.8637L582.282 70.715L585.154 72.1406L590.898 70.715L595.205 67.8637L596.641 66.4381L598.077 65.0125L602.385 66.4381L606.692 65.0125V62.1607L605.257 60.7352V59.3096L608.128 62.161L609.564 63.5865L611 60.7352L608.127 57.8834H609.563L610.999 56.4578V55.0322H608.127L605.255 56.4578L603.82 55.0322L602.384 53.6067V55.0322H600.948L602.384 52.1809V46.4788L600.948 45.0533L599.512 43.6277L596.64 42.2021H589.461L592.333 40.7765L595.205 39.351L598.077 36.9283L599.512 33.7919V32.7931L596.641 33.2207L593.769 32.2219L596.641 31.223L600.948 28.6569L598.076 26.8035L596.641 25.3779V17.2534L595.205 17.681L593.769 18.8215L592.333 19.1067L590.897 19.2493L586.589 20.3899L583.718 21.3888L576.538 21.5314H572.23L569.359 25.0942L567.923 28.6584L566.488 29.7989V30.0841L567.923 31.2247V32.3653L565.051 31.5099L563.615 30.0844L562.179 31.2243Z" fill="#8E8E8E" stroke="#C4C4C4"/>
<path d="M340.053 611.401H335.869L333.079 609.92H331.685L327.5 605.48L326.106 604H323.316L320.527 605.48L317.737 604H314.947L313.553 606.96L312.158 608.44H310.763L305.184 611.4L303.789 612.88L302.395 617.32L301 620.28V626.2L302.395 627.68L305.184 630.64V633.6L306.579 636.56L307.974 638.04L309.368 639.52L312.158 641L314.947 639.52H316.342L324.71 635.08H327.5L328.894 632.12V629.161L331.684 627.681L334.474 624.721H337.263L340.053 618.801L344.237 615.84H349.816L354 612.88L352.605 609.92L351.211 606.96L348.421 608.44H342.842L340.053 611.4L340.053 611.401Z" fill="#8E8E8E" stroke="#C4C4C4"/>
<path d="M515.7 622.858L512.833 624.287H509.967V627.143L508.533 632.857L507.1 638.571L508.533 640H509.967V634.286L511.4 628.571L514.267 625.714L515.7 624.286L515.7 622.858ZM524.3 632.858V630.001L522.867 631.429L521.434 632.858L524.3 632.858ZM534.334 594.286L532.9 591.429H531.467L530.034 595.715L528.6 598.572H522.867V600.001L524.3 601.429L522.867 604.287L521.434 607.144V610L520.001 612.857V615.714L518.567 618.572L520.001 620L521.434 612.857L522.867 611.429L524.3 610V607.143L527.167 604.286L528.6 600L531.467 597.143L534.334 594.286L534.334 594.286ZM544.367 570.001L542.934 571.429L540.067 578.572V580L538.633 581.429L541.5 582.857L544.367 572.857L544.367 570.001ZM555.833 548.572L554.4 544.286V548.572L552.967 551.429V552.858L555.833 548.572ZM557.267 528.572V531.429L558.7 530.001V528.572L557.267 528.572ZM558.7 507.143L557.267 504.286L558.7 505.715V507.143ZM557.267 490L558.7 492.858V494.286L560.133 492.858L558.7 488.572L557.267 490ZM563 462.857V460H561.567L560.133 462.857H563ZM558.7 471.429L555.833 477.143L557.266 478.572L560.133 475.714L561.567 471.428V467.143L560.133 464.286L558.7 462.857L557.267 464.286L558.7 467.143V471.429ZM439.733 542.858L432.567 534.286L426.833 527.143L422.533 521.429V522.858H421.1V520L418.233 518.572L415.367 515.715L413.933 508.572L411.067 500H409.633L406.767 497.143L405.333 494.286H406.767L408.2 495.714V497.143H409.633L403.9 490L399.6 484.286V481.429L395.3 478.571L393.867 477.143V480H392.433L391 481.429L393.867 482.857L398.167 485.714V487.143H399.6V490H398.167V491.429L399.6 492.857L398.167 497.143L396.734 495.714H395.3L392.433 497.143V500L393.867 502.857L395.3 504.286L398.167 514.286L401.034 524.286L406.767 528.572L413.933 534.286L415.367 538.572V544.286L418.233 547.143L419.667 550L428.267 575.715V577.143L434 581.429L436.867 587.143L438.3 591.429V597.143L441.167 600.001L442.6 602.858L445.467 614.286L451.2 622.858L452.633 621.429V618.572L451.2 611.429L452.633 605.715L454.067 607.144L458.367 605.715L461.233 607.144L464.1 608.572L465.533 611.429L466.967 612.858L464.1 605.715L461.233 600.001L459.8 601.429L456.933 600.001L454.066 598.572L451.2 595.715L445.466 591.429L441.166 584.286L439.733 575.715V568.572L438.3 565.715V562.858L439.733 561.429L441.166 558.572L448.333 557.143L455.5 560.001L458.366 561.429L459.799 562.858L456.933 560L452.633 557.143L449.766 554.286L448.333 551.429L439.733 542.857L439.733 542.858Z" fill="#8E8E8E" stroke="#C4C4C4"/>
<path d="M283.39 501.878L286.219 499.055L287.634 494.822H284.805L283.39 493.411L280.561 492L279.146 493.411L276.317 494.822H274.903L273.489 493.411L269.245 496.233L263.586 494.822L260.757 497.645H256.513L255.098 499.056V500.467L252.269 501.878L249.44 504.7V506.111L248.025 507.522L243.781 506.111L239.537 504.7V506.111H233.879L232.464 508.933V510.344L229.635 508.933H228.22L225.391 510.344L221.147 513.167H218.318L215.488 511.756H211.244L207 513.167L199.927 511.756L197.098 508.933L194.268 506.111L187.195 504.7H178.708L177.293 503.289L174.464 501.878H168.805L165.976 500.467L163.146 499.056L160.317 497.645L154.659 499.056L149 501.878V507.522H150.415V510.344L151.83 511.756L154.659 513.167L157.488 514.578L156.074 515.989H154.659V518.811L157.488 521.634H158.903V520.223L161.732 518.812L165.976 517.401L168.806 521.634L170.22 525.867H171.635L174.464 524.456L177.293 531.512L174.464 538.567L175.879 539.978H177.293L181.537 542.8L180.123 544.211L178.708 545.623V549.856L177.293 552.678L181.537 556.911L184.367 561.145H191.44L194.269 559.734L197.099 558.323H198.513L199.928 556.912L202.757 558.323L205.586 559.734L207.001 558.323L211.245 561.145L215.489 562.556V561.145H223.977L225.391 562.556V563.967H226.806L228.22 565.378H229.635V568.2H231.05L233.879 571.023L235.293 572.434L236.708 578.078L243.781 586.545H245.196V587.956L246.61 589.367V592.189L249.44 595.011L252.269 599.245L253.684 600.656L255.098 604.889H256.513L257.927 606.3V609.122L262.171 616.178L267.83 614.767L273.488 613.356L274.903 614.767H277.732V616.178H279.147L280.561 614.767L281.976 616.178V614.767H283.39V613.356L289.049 617.589L298.951 619H300.366L301.78 616.178L303.195 611.944L304.61 610.533V606.3L303.195 602.066V592.189L300.366 590.777H298.951V589.366L297.537 587.955L296.122 589.366H294.707V587.955L294.014 587.263L293.293 586.544L291.878 587.955V579.488L293.293 575.255L294.707 572.433V571.022L293.293 568.2L297.537 565.377L301.78 562.555V559.733L303.195 556.91L304.61 555.499L307.439 554.088L310.268 552.677V547.033L308.854 544.211L315.927 542.8H321.585L323 541.389V538.567L321.585 535.744V530.1L320.171 525.867L315.927 524.456H314.512L313.098 525.867L308.854 527.278H306.024L304.61 530.1L301.78 532.922L296.122 535.744L293.293 537.155L291.878 538.567H286.22L283.39 534.333L280.561 531.511H274.903L270.659 530.1V524.456L274.903 521.633V513.167L276.318 511.756L277.732 510.344L280.562 507.522L283.391 504.7V501.878H283.39Z" fill="#8E8E8E" stroke="#C4C4C4"/>
<path d="M405 611.432H400.691L397.818 609.989V607.103L399.254 604.217L397.818 601.33L394.945 598.443L393.509 597L387.763 599.886L384.891 604.217H382.018V605.66L383.454 607.103L384.89 608.546V609.99L386.327 611.433H392.072L389.199 620.093L383.454 622.979V628.753L377.709 633.083L370.527 635.969L369.09 634.526L367.654 633.083L366.218 634.526L364.782 635.969V633.083L363.345 631.639L361.909 633.083L360.473 631.639H359.036L356.164 635.969L354.727 640.299V643.185L351.854 646.071V661.948L350.418 664.834L351.854 667.721L350.418 669.164L348.982 672.051L350.418 676.381L347.545 679.268H336.055L331.745 680.711L330.309 686.484L327.436 687.927L326 689.371L327.436 692.257L328.873 695.144L333.182 703.804L334.618 712.464L336.054 713.907V715.35L334.618 725.453L330.309 726.897L328.873 729.783H330.309L331.745 731.227L333.182 734.113L334.618 737L336.054 734.113V732.67L334.618 731.227L333.182 729.784H340.363V726.897L341.8 721.124L344.672 716.794L343.236 715.35L344.672 713.907H346.109V718.237L347.545 716.794L348.981 715.351L350.418 713.907V712.464L351.854 716.794V719.68H353.29V718.237H354.726L356.163 719.68L357.599 718.237L360.472 719.68L361.908 721.124V718.237L363.344 719.68L366.217 718.237L369.09 715.35L377.708 706.69L383.454 696.587L384.89 695.144V692.257H386.326V686.484L387.763 682.154V679.267L390.635 676.381L392.072 669.164L394.945 660.504L397.818 651.844L400.691 644.628L402.127 637.412L403.564 628.752V621.535L405 615.762V611.432Z" fill="#8E8E8E" stroke="#C4C4C4"/>
<path d="M588.317 325.984L592.083 324.72L595.44 326.827L602.783 325.984L600.265 323.455L597.118 324.509L592.293 322.823L592.922 320.716L588.936 323.455L588.317 325.984ZM607.263 318.319L610.965 318.399L612.221 317.577L616 317.24L615.686 316.502L606.874 317.345L607.263 318.319ZM541.27 280.627H538.424V297.779H539.847V293.491L541.27 290.632V287.773L542.693 286.344L544.116 283.485L541.27 280.627ZM546.963 190.582L545.54 192.011V196.299H542.693L541.27 197.728L539.847 199.157L535.578 197.728L529.886 196.299H524.193L518.501 197.728L517.078 189.152L515.655 182.006H508.539L507.116 180.577H504.27L500.001 182.006L495.731 183.435L494.308 182.006H491.462L488.616 183.435L487.193 184.864L484.346 187.723L481.5 189.152H480.077L474.385 192.011V193.44H470.116L467.269 194.869L465.846 196.298L463 199.157L464.423 202.015L465.846 203.445L468.692 209.162V214.879L471.539 219.167L475.808 223.455V226.313L477.231 229.172V230.601L478.654 233.46L481.5 236.319L487.193 239.177V241.982V244.895L488.615 246.324H490.039V250.612L491.462 252.041L492.885 254.9H494.308L495.731 253.47V252.041L497.154 253.47H500V249.183H495.731L492.884 243.465V240.607L491.461 239.177L490.038 234.89L494.308 232.031L495.731 227.743H502.846L500 230.602L498.577 236.319L501.423 240.607L504.269 244.895V247.753L505.692 250.612H508.539L509.962 254.9V257.759L511.385 259.188L512.808 260.617L511.385 263.476L508.538 266.334V270.622L507.115 272.051L505.692 274.91V279.198L507.115 280.627L505.692 289.203V296.349L504.269 297.779V299.208L502.846 304.925V310.642L504.269 312.071L505.692 313.501V314.93L504.269 316.359V324.935L502.846 330.652L501.423 336.369L500 339.228L498.577 340.657V344.945L495.731 346.374L492.885 347.803L495.731 349.232L498.577 353.52V362.096L497.154 369.243L500 377.818L504.27 386.394L524.193 413.551L549.808 439.278L554.078 446.424L559.77 452.141L564.039 455L565.462 447.854V440.707L566.885 439.278L568.308 434.99L566.885 422.126L564.039 419.268H562.616V416.409L561.193 413.55H559.77L558.347 412.121L559.77 410.692L562.616 412.121L566.885 402.116L569.732 400.687H571.155V399.258L564.04 393.541L561.193 384.965V377.818L565.463 370.672H566.885L568.309 372.101L571.155 366.384V362.096L566.885 359.237L562.616 356.378L558.347 346.373L559.77 336.368V334.939L558.347 333.51L559.77 330.651L561.193 332.08V336.368H564.039L565.462 332.08L558.347 326.363V324.934L556.924 326.363L555.501 327.793L551.232 323.505L548.385 319.217V314.929L546.962 310.641H539.847L538.424 312.07L539.847 313.499L537.001 314.929L534.154 313.499L529.885 300.636V292.06L528.462 290.631H529.885V289.202H528.462V284.914L527.039 283.484H525.616L524.193 276.338L527.039 270.621L528.462 269.192L527.039 267.762H531.309L534.155 269.192L535.578 264.904L532.732 263.475V262.045L535.578 256.328L537.001 250.611L538.424 252.04L544.116 260.616V250.611L545.539 243.465L549.809 234.889L555.501 232.03L562.616 229.171L568.309 232.03H572.578L571.155 227.742L568.309 223.454L569.732 220.596L571.155 216.308V209.161L572.578 207.732L571.155 204.873H569.733L571.156 203.444H572.579L571.156 202.015L569.733 200.586H571.156L572.579 196.298L571.156 194.869H569.733L571.156 193.439L572.579 192.01V187.722H571.156V184.864H572.579L574.002 182.005V179.146L575.425 177.717L574.002 176.288V174.859H571.155L568.309 176.288L565.463 173.429L564.04 172L549.809 189.152L546.963 190.582Z" fill="#8E8E8E" stroke="#C4C4C4"/>
<path d="M427.286 207.667H425.857L423 209.083H418.714L417.286 203.417L414.429 202H410.143V204.833L407.286 206.25L405.857 210.5L404.429 213.334H403L400.143 211.917L398.714 213.334L397.286 214.75L393 216.167L387.286 217.583V220.417H383V223.25L384.429 226.084L383 228.917L381.572 231.75V236.001L384.429 237.417L381.572 241.667V248.75L384.429 251.584L387.286 253L385.858 255.834V257.25H387.286V260.084H384.429L383 264.334L381.572 267.167L380.143 268.584L377.286 270.001V271.417L375.858 274.251L371.572 272.834L365.858 270.001L364.429 272.834L361.572 275.667H358.715L355.858 277.084L358.715 281.334L357.286 285.584L355.858 287.001L354.429 285.584L353.001 287.001L351.572 288.417L348.715 289.834H345.857L344.428 294.084L343 299.751L344.428 312.501L348.714 315.335L351.572 318.167V319.584L350.143 322.417L351.572 323.834V326.667L350.143 329.501V335.168L357.286 333.751L363 332.334L371.571 338.001L375.857 346.501H374.429V349.333L375.149 350.761L375.857 352.167L371.572 353.583V359.25L375.858 360.667H381.572L387.286 363.5L391.572 367.75V372L395.857 370.583H397.286L400.143 367.75L403 364.917H405.858L410.143 363.5L408.715 362.083H407.286V359.25H408.715V353.584L413 352.167L417.286 350.75H421.572V352.167H424.429V349.333L428.715 346.5L431.572 347.916L434.429 349.333L437.287 347.916H438.715V349.333H437.287L434.429 352.166L431.572 353.583L433.001 357.833H434.429L437.286 356.416L440.144 352.166L441.572 350.75H444.429L447.286 349.333V345.083L448.715 342.25L453.001 340.833H455.858L457.286 339.417V336.583H461.572L460.144 335.166H461.572L463.001 333.75L461.572 330.916L458.715 329.5L455.858 330.916L454.429 332.333V333.75L453.001 335.166H451.572V329.5H450.144L448.715 328.083V326.666L450.144 325.25H448.714V316.75L451.572 311.083L453 304L451.572 302.583V296.918L453 294.084L451.572 291.251L450.143 288.418L453 282.751L454.429 278.501H457.286L458.715 277.084L464.429 268.584H468.715L471.572 270.001L473 265.751V262.918L475.858 265.751L477.286 268.584V274.251L478.715 275.668L480.143 277.084V278.501L481.571 279.917L483 278.501L484.428 277.084L485.857 279.918L487.286 284.168L490.143 270.001L493 254.418H491.571L490.143 251.584L488.715 250.168V245.917H487.286L485.857 244.501V238.834L480.143 236.001L477.286 233.168L475.858 230.334V228.917L474.429 226.084V223.25L470.143 219L467.286 214.75V209.084L464.429 203.417L463.001 202L458.715 204.834L455.857 207.667H448.714L444.429 206.25L440.143 209.084H434.429L430.143 207.667H427.286L427.286 207.667Z" fill="#8E8E8E" stroke="#C4C4C4"/>
<path d="M41.0418 151.804H38.1816V156.087H36.7516L38.1816 158.942L42.4718 161.798L45.3321 160.37L46.7621 157.515L41.0418 151.804ZM189.77 133.244L186.909 128.961L182.619 127.534L185.479 130.389L189.77 133.245V133.244ZM175.469 100.408V94.6977L174.039 93.2701L171.179 94.6977L174.039 98.9807V101.836L175.469 100.408ZM211.221 114.685L212.651 120.395L214.081 121.823H216.941V116.112L211.221 114.685ZM235.532 131.817L238.392 126.106V124.679L236.962 123.251L229.812 118.968H222.662L219.801 123.251V128.962L218.371 131.817L216.941 133.245L215.511 134.672H218.372L221.232 133.245L224.092 131.817H228.382L235.533 130.389L235.532 131.817ZM225.521 77.566L226.951 76.1384L219.801 74.7108L214.081 73.2832L212.651 74.7108L209.791 76.1384L204.07 73.283L199.78 71.8554V73.283L201.21 74.7106H199.78L198.35 76.1382V77.5658L199.78 80.4212V81.8488L201.21 83.2763L196.92 81.8488L192.63 80.4212L189.769 78.9936H188.339L186.909 77.566V76.1382L185.479 77.5658L184.049 80.4212L182.619 83.2766L181.189 84.7041L179.759 86.1317L181.189 87.5593V91.8421L179.759 94.6975H181.189L182.619 96.1251V98.9805L184.049 101.836L186.91 104.691L191.2 106.119L192.63 108.974L194.06 110.402H201.21V101.836L202.64 103.263L204.07 104.691L205.5 103.263L206.93 101.836L212.65 97.5529H218.371L219.801 96.1253L221.231 94.6977L222.661 93.2701L219.801 91.8425H216.94L211.22 87.5596L208.36 81.849L212.65 77.566V78.9936L221.231 90.4147L225.521 84.7041L224.091 78.9936L225.521 77.566ZM259.843 69L258.413 70.4276L254.123 69L249.833 70.4276V71.8552L248.403 73.2828L245.543 71.8552V70.4276H241.253L238.393 71.8552V74.7102L236.963 76.1377L234.103 73.2824V71.8548L232.673 74.7102L234.103 80.4207L239.823 81.8483L246.973 83.2759L255.554 80.4205L261.274 74.7099V71.8552L259.843 69ZM354.228 120.396L331.347 134.672L324.197 143.238L318.476 146.094L312.756 143.238L307.036 140.383H299.886L294.165 138.955V140.383L292.735 141.811H289.875L288.445 140.383L289.875 137.528L292.735 136.1L289.875 133.245L285.585 130.389L279.865 131.817L275.574 133.244L269.854 144.666L264.134 154.659H262.704V151.804L261.274 150.376L264.134 148.949L265.564 147.521L264.134 146.094V143.238L266.994 141.81L268.424 138.955L265.564 140.383L258.414 144.666L256.984 146.093L255.554 147.521L254.124 144.665L258.414 140.382H259.844L264.134 137.527L268.424 136.099L252.694 137.527L236.963 143.238H229.813L226.952 144.665L228.383 146.093L231.243 147.52L229.813 151.803L225.522 153.231L222.662 160.37L224.092 161.798L226.952 160.37V163.225L228.382 164.653L229.812 167.508V170.364L232.672 171.791V174.647H229.812V177.502L228.382 176.074L226.952 174.647H225.522L224.092 176.074H221.232V184.64L215.511 181.785L205.501 180.357L201.211 186.068L195.49 190.351L189.77 188.923L185.48 186.068L184.05 183.212L186.91 181.785L184.05 180.357L182.62 193.206L181.19 208.91L179.76 210.338L178.33 208.91L176.9 207.483V208.91H174.039L172.61 207.483V206.055H168.319L165.459 201.772L162.599 197.489H161.169L159.739 196.062L161.169 194.634L162.599 193.206L161.169 190.351L158.309 188.924L159.739 190.351V191.779L158.309 193.206L155.448 190.351L154.018 187.495L146.868 183.212L144.008 181.785H148.298L151.158 184.64L154.018 187.496H158.309L161.169 184.64L159.739 180.357L156.879 177.502V171.791L155.449 168.936V167.508L152.589 164.653H149.728L141.148 157.515L138.288 158.942L135.427 160.37H128.277L123.987 157.515L118.267 156.087V157.515L116.836 158.942L113.976 166.081L115.406 171.791V177.502L112.546 176.074H108.256V177.502H105.396L102.535 178.93L101.105 180.357L96.815 178.93L93.9548 177.502H85.3758L82.5156 176.074V173.219L85.3758 170.364L83.9458 168.936H72.5053L69.645 167.508L68.215 168.936H66.785L63.9248 167.508H61.0646L59.6345 168.936L58.2045 170.364L55.3442 171.791L51.054 173.219V177.502L48.1938 174.647L49.6238 171.791L48.1938 167.508L45.3335 164.653V168.936L43.9035 170.363H39.6125L35.3222 167.508L33.8922 168.936L32.4622 173.218L29.602 176.074L31.032 177.501H32.4619V181.784L33.892 183.212L32.4619 188.923L33.892 194.633L35.322 196.061V200.344L36.752 201.771L39.6122 203.199L42.4725 206.054L43.9025 211.765V217.476L46.7627 223.186L48.1928 227.469V228.897L42.4725 233.18L36.7522 237.463L35.3222 241.746V244.601L33.8922 246.029L31.032 247.456V253.167L28.1717 257.45H25.3115L21.0212 256.022L16.731 257.45L13.8708 260.305H11.0105L8.15026 258.878V260.305H6.72024L5.29027 263.161V264.588L6.72024 270.299L9.58048 274.582V294.569L8.15046 310.273L3.86025 313.129L1 315.984L2.43003 317.412L3.86005 318.839V328.833L5.29001 331.688V338.826L6.72004 341.682L9.58029 344.537L12.4405 347.392L11.0105 350.248L9.58048 351.675L6.72024 355.958V360.241L3.86005 364.524L6.72024 370.235H9.58048L11.0105 371.663L12.4405 373.09L18.1608 374.518H28.1713L29.6013 377.373L31.0313 381.656L29.6013 383.084L26.7411 387.367L31.0307 388.794L35.3209 393.077L36.7125 402.801L36.7512 410.209L39.6114 413.064L42.4721 417.347L41.0414 420.202L38.1818 423.058L39.6118 430.196L43.9021 434.479L41.0418 441.617L38.1816 450.183V454.466L36.7509 455.893L35.3209 457.321V464.46L36.7509 470.17H39.6112L46.7614 468.743L48.1915 465.887L52.4817 467.315H53.9117V465.887H55.3417H56.7711H58.2018H62.492L63.922 464.46L66.7822 461.604V463.032L68.2116 465.887L71.0723 467.315L69.6422 471.598L76.7926 464.459L82.5128 455.893H85.3758L86.8058 453.038L88.2358 448.755L91.0961 447.328H93.9563L98.2465 443.045H103.965L108.255 444.472L111.116 447.328L113.976 448.755V451.611L115.406 453.038V455.893H122.556H129.706L131.136 458.749V461.605L132.566 464.46V468.743L133.996 471.598L135.426 473.026V474.453L136.856 477.309V485.875L139.717 491.585L141.147 490.158H142.577L144.007 495.868L148.297 501.579L154.017 498.724L159.737 497.296L162.598 498.724L165.458 500.151L168.318 501.579H174.038L176.899 503.006L178.329 504.434H186.909L194.059 505.862L196.92 508.717L199.78 511.572L206.93 513L211.22 511.572H215.511L218.371 513H221.231L225.521 510.145L228.382 508.717H229.812L232.672 510.145V508.717L234.102 505.862H239.822V504.435L244.112 505.863L248.403 507.29L249.833 505.863V504.435L252.693 501.58L255.553 500.152V498.724L256.983 497.297H261.273L264.134 494.441L265.564 487.303V481.593L268.424 480.165L269.854 478.738V475.882L268.424 473.027L265.564 471.599L264.134 470.172H261.273L262.703 467.316L265.564 465.889V461.605L266.994 460.178L268.424 458.75L264.133 455.895L261.273 451.612H265.564L264.133 445.901L265.564 441.618L266.993 433.052L268.423 430.197L271.284 427.341H274.144L281.294 424.486L288.444 421.63L289.875 420.203V417.347L291.305 414.492L292.93 415.303L294.165 415.92H295.595L298.455 414.492L305.605 410.21L307.035 404.499V403.071L308.465 401.644L311.325 404.499L312.755 403.072L311.325 398.789L308.465 395.933L307.035 390.223L305.605 383.084L302.745 378.801L304.175 373.091V371.663L305.605 370.236V368.808L307.035 367.38V364.525L309.895 363.097L311.325 361.67V353.104L312.755 344.538H318.475L325.626 347.393H328.486L329.916 345.966L331.346 347.393L332.776 348.821L335.637 344.538L338.497 341.682H339.927L341.357 343.111L342.787 341.683L344.217 340.255L345.647 341.683L348.507 344.538L349.937 340.255V330.262L351.367 327.406V324.551L349.937 323.123L351.367 320.268V318.84L348.507 315.985L344.217 313.13L342.787 300.281L344.217 294.57L345.647 290.287H348.507L351.367 288.859L352.797 287.432L354.227 286.004L355.657 287.432L357.087 286.004L358.517 281.721L355.657 277.438L358.517 276.011H361.378L364.238 273.155L365.668 270.3L371.388 273.155L375.678 274.583L377.108 271.727V270.3L379.969 268.872L381.399 267.445L382.829 264.589L385.689 260.306H387.119V257.451H385.689V256.023L387.119 253.168L385.689 251.74L381.399 248.885V241.747L384.259 237.464L381.399 236.036V231.753L382.829 228.898L384.259 226.042L382.829 223.187V220.332H387.119V217.476L392.839 216.049L397.129 214.621L398.559 213.194L399.99 211.766L402.85 213.194H404.28L405.71 210.338L407.14 206.055L410 204.628V201.772L407.14 197.489L404.28 191.779L405.709 190.351V188.924L397.129 186.068L388.548 180.358V177.502L389.978 174.647L388.548 173.219L387.119 171.791L394.269 161.798L404.279 150.377L405.709 148.949L408.57 147.521L407.14 144.666L404.279 140.383V137.528L401.419 136.1H399.989L398.559 133.245L397.129 131.817H395.699L394.269 130.389L392.839 127.534L391.409 130.389V133.245H389.979V131.817H388.549V138.955L387.119 136.1L384.259 133.245L379.968 134.672H374.248L372.818 130.389L369.958 124.679L354.227 120.396L354.228 120.396ZM214.081 180.357L216.941 181.785L219.801 180.357V178.93L218.371 177.502L215.511 178.93L214.081 180.357Z" fill="#A6DCA1" stroke="#C4C4C4"/>
</svg>
